<svg width="21" height="20" viewBox="0 0 21 20" fill="none" xmlns="http://www.w3.org/2000/svg">
<path fill-rule="evenodd" clip-rule="evenodd" d="M11.3333 0.833333C11.3333 0.373096 10.9602 0 10.5 0C10.0398 0 9.66667 0.373096 9.66667 0.833333V9.16667H1.33333C0.873096 9.16667 0.5 9.53976 0.5 10C0.5 10.4602 0.873096 10.8333 1.33333 10.8333H9.66667L9.66667 19.1667C9.66667 19.6269 10.0398 20 10.5 20C10.9602 20 11.3333 19.6269 11.3333 19.1667L11.3333 10.8333H19.6667C20.1269 10.8333 20.5 10.4602 20.5 10C20.5 9.53976 20.1269 9.16667 19.6667 9.16667H11.3333L11.3333 0.833333Z" fill="black"/>
</svg>